<?xml version="1.0" encoding="UTF-8"?>
<svg xmlns="http://www.w3.org/2000/svg" xmlns:xlink="http://www.w3.org/1999/xlink" width="150px" height="40px" viewBox="0 0 151 40" version="1.1">
<g id="surface1">
<path style=" stroke:none;fill-rule:evenodd;fill:rgb(0%,0%,0%);fill-opacity:1;" d="M 19.507812 0.707031 C 19.21875 0.8125 18.269531 1.707031 15.328125 4.652344 C 13.234375 6.75 11.453125 8.605469 11.371094 8.78125 C 11.167969 9.203125 11.175781 10.097656 11.378906 10.507812 C 11.601562 10.949219 18.839844 18.210938 19.3125 18.464844 C 19.867188 18.761719 20.710938 18.742188 21.257812 18.417969 C 21.484375 18.28125 23.3125 16.519531 25.320312 14.5 C 29.359375 10.429688 29.351562 10.4375 29.246094 9.40625 C 29.21875 9.121094 29.109375 8.746094 29.003906 8.578125 C 28.898438 8.410156 27.121094 6.589844 25.054688 4.53125 C 21.867188 1.355469 21.234375 0.773438 20.90625 0.679688 C 20.402344 0.535156 19.96875 0.542969 19.507812 0.707031 M 16.179688 5.503906 C 13.640625 8.042969 12.453125 9.292969 12.414062 9.46875 C 12.382812 9.613281 12.40625 9.828125 12.46875 9.945312 C 12.53125 10.066406 14.199219 11.792969 16.179688 13.78125 C 20.027344 17.644531 20.066406 17.675781 20.644531 17.367188 C 20.796875 17.289062 22.519531 15.613281 24.480469 13.640625 L 28.046875 10.058594 L 28.046875 9.222656 L 24.339844 5.507812 C 20.707031 1.875 20.625 1.796875 20.257812 1.796875 C 19.890625 1.796875 19.804688 1.875 16.179688 5.503906 M 19.335938 5.777344 C 18.273438 6.027344 17.121094 6.980469 16.640625 8.015625 C 16.410156 8.507812 16.382812 8.660156 16.382812 9.644531 C 16.382812 10.648438 16.40625 10.777344 16.652344 11.277344 C 17.800781 13.625 20.648438 14.285156 22.742188 12.6875 C 23.21875 12.324219 23.78125 11.476562 23.988281 10.800781 C 24.300781 9.789062 24.203125 8.730469 23.707031 7.761719 C 23.4375 7.234375 22.628906 6.417969 22.117188 6.15625 C 21.277344 5.726562 20.179688 5.578125 19.335938 5.777344 M 19.472656 8.429688 C 19.121094 8.65625 18.792969 9.226562 18.792969 9.613281 C 18.792969 10.054688 19.136719 10.632812 19.535156 10.855469 C 20.207031 11.234375 20.988281 11.042969 21.417969 10.402344 C 21.722656 9.949219 21.679688 9.109375 21.335938 8.738281 C 20.824219 8.191406 20.046875 8.0625 19.472656 8.429688 M 49.765625 8.757812 C 46.339844 9.195312 44.234375 10.519531 43.058594 12.972656 C 42.488281 14.164062 42.324219 15.136719 42.25 17.683594 C 42.101562 22.914062 42.570312 24.9375 44.335938 26.722656 C 45.734375 28.140625 47.363281 28.808594 49.945312 29.035156 C 53.363281 29.332031 56.441406 28.371094 58.238281 26.441406 C 59.222656 25.390625 59.6875 24.390625 59.886719 22.886719 C 59.996094 22.046875 59.996094 22.03125 59.777344 21.796875 L 59.554688 21.558594 L 57.230469 21.558594 C 55.320312 21.558594 54.871094 21.585938 54.707031 21.703125 C 54.589844 21.78125 54.414062 22.113281 54.300781 22.460938 C 53.886719 23.707031 53.230469 24.363281 52.128906 24.644531 C 50.855469 24.964844 49.453125 24.652344 48.699219 23.878906 C 47.929688 23.082031 47.746094 21.929688 47.808594 18.296875 C 47.847656 16.007812 47.871094 15.679688 48.054688 15.109375 C 48.332031 14.253906 48.75 13.734375 49.433594 13.382812 C 49.957031 13.113281 50.050781 13.097656 51.082031 13.097656 C 52.019531 13.097656 52.242188 13.128906 52.648438 13.316406 C 53.414062 13.667969 53.992188 14.359375 54.25 15.222656 C 54.398438 15.726562 54.601562 16.054688 54.828125 16.15625 C 54.984375 16.226562 55.824219 16.265625 57.28125 16.265625 L 59.503906 16.265625 L 59.746094 16.019531 C 59.976562 15.789062 59.984375 15.746094 59.921875 15.105469 C 59.765625 13.511719 59.117188 12.199219 57.921875 11.070312 C 56.785156 9.988281 55.324219 9.285156 53.507812 8.933594 C 52.75 8.785156 50.40625 8.675781 49.765625 8.757812 M 128.242188 8.804688 C 125.058594 9.175781 122.617188 10.886719 121.632812 13.445312 C 121.144531 14.707031 121.0625 15.472656 121.0625 18.914062 C 121.0625 22.28125 121.140625 23.050781 121.589844 24.300781 C 122.28125 26.21875 123.730469 27.664062 125.707031 28.40625 C 127.761719 29.179688 130.660156 29.300781 132.996094 28.707031 C 135.273438 28.128906 136.949219 26.8125 137.832031 24.917969 C 138.53125 23.417969 138.660156 22.320312 138.605469 18.363281 C 138.566406 15.40625 138.554688 15.230469 138.320312 14.351562 C 137.753906 12.230469 136.535156 10.710938 134.617188 9.746094 C 132.886719 8.871094 130.589844 8.535156 128.242188 8.804688 M 67.660156 9.113281 C 67.507812 9.183594 67.324219 9.300781 67.261719 9.378906 C 67.105469 9.570312 60.4375 27.941406 60.4375 28.183594 C 60.4375 28.289062 60.542969 28.480469 60.667969 28.609375 C 60.902344 28.839844 60.90625 28.839844 62.890625 28.839844 C 64.917969 28.839844 65.390625 28.773438 65.59375 28.449219 C 65.636719 28.378906 65.914062 27.683594 66.207031 26.902344 L 66.738281 25.484375 L 70.375 25.460938 C 73.777344 25.4375 74.019531 25.445312 74.082031 25.601562 C 74.117188 25.691406 74.335938 26.269531 74.5625 26.882812 C 75.121094 28.371094 75.21875 28.550781 75.597656 28.707031 C 76.03125 28.886719 79.632812 28.898438 79.984375 28.71875 C 80.53125 28.441406 80.636719 28.792969 77.066406 18.957031 C 75.238281 13.925781 73.679688 9.679688 73.601562 9.527344 C 73.34375 9.03125 73.066406 8.984375 70.378906 8.988281 C 68.589844 8.988281 67.871094 9.023438 67.660156 9.113281 M 82.476562 9.09375 C 82.363281 9.148438 82.226562 9.296875 82.167969 9.421875 C 82.09375 9.589844 82.0625 12.332031 82.0625 18.996094 L 82.0625 28.335938 L 82.304688 28.566406 C 82.546875 28.789062 82.582031 28.792969 84.519531 28.824219 C 86.171875 28.847656 86.539062 28.828125 86.78125 28.703125 C 86.9375 28.621094 87.078125 28.542969 87.089844 28.53125 C 87.101562 28.519531 87.132812 26.160156 87.160156 23.292969 L 87.210938 18.074219 L 88.714844 20.863281 C 89.804688 22.882812 90.300781 23.710938 90.507812 23.859375 C 90.765625 24.042969 90.917969 24.066406 91.902344 24.066406 C 92.863281 24.066406 93.035156 24.042969 93.261719 23.875 C 93.421875 23.753906 94.089844 22.632812 95.0625 20.847656 L 96.605469 18.015625 L 96.605469 28.289062 L 97.15625 28.839844 L 99.105469 28.839844 C 101.132812 28.839844 101.507812 28.777344 101.648438 28.410156 C 101.679688 28.328125 101.707031 24.03125 101.707031 18.867188 C 101.707031 9.765625 101.699219 9.46875 101.523438 9.253906 C 101.347656 9.035156 101.3125 9.03125 99.449219 9 C 97.859375 8.976562 97.503906 8.996094 97.234375 9.125 C 96.886719 9.289062 96.851562 9.347656 93.527344 15.292969 C 92.648438 16.867188 91.910156 18.152344 91.882812 18.152344 C 91.859375 18.15625 90.726562 16.167969 89.375 13.734375 C 87.210938 9.851562 86.871094 9.292969 86.589844 9.148438 C 86.3125 9.007812 86 8.984375 84.472656 8.988281 C 83.441406 8.992188 82.589844 9.039062 82.476562 9.09375 M 104.488281 9.214844 L 104.253906 9.449219 L 104.253906 28.289062 L 104.53125 28.566406 L 104.808594 28.839844 L 111.714844 28.839844 C 119.027344 28.839844 119.046875 28.839844 119.210938 28.410156 C 119.242188 28.328125 119.269531 27.515625 119.269531 26.605469 C 119.269531 24.980469 119.265625 24.953125 119.039062 24.722656 L 118.804688 24.492188 L 109.449219 24.492188 L 109.449219 20.898438 L 118.007812 20.898438 L 118.214844 20.679688 C 118.410156 20.472656 118.421875 20.375 118.421875 18.851562 C 118.421875 17.292969 118.414062 17.238281 118.203125 17.039062 C 117.984375 16.832031 117.96875 16.832031 113.714844 16.832031 L 109.449219 16.832031 L 109.449219 13.332031 L 113.929688 13.332031 C 117.011719 13.332031 118.484375 13.300781 118.640625 13.226562 C 119.023438 13.054688 119.082031 12.769531 119.082031 11.097656 L 119.082031 9.535156 L 118.804688 9.261719 L 118.527344 8.984375 L 104.71875 8.984375 L 104.488281 9.214844 M 141.234375 9.125 C 140.625 9.339844 140.375 9.660156 140.375 10.222656 C 140.375 10.636719 140.414062 10.734375 140.667969 10.964844 C 140.859375 11.132812 141.199219 11.285156 141.632812 11.390625 C 142.355469 11.566406 142.613281 11.746094 142.417969 11.941406 C 142.242188 12.117188 141.558594 12.082031 141.417969 11.890625 C 141.332031 11.769531 141.164062 11.726562 140.765625 11.726562 C 140.171875 11.726562 140.121094 11.800781 140.382812 12.304688 C 140.585938 12.703125 141.171875 12.949219 141.914062 12.953125 C 142.875 12.957031 143.492188 12.570312 143.601562 11.894531 C 143.710938 11.210938 143.179688 10.710938 142.15625 10.546875 C 141.664062 10.46875 141.410156 10.292969 141.492188 10.085938 C 141.574219 9.867188 141.980469 9.890625 142.300781 10.125 C 142.679688 10.402344 143.382812 10.355469 143.429688 10.042969 C 143.46875 9.75 142.929688 9.222656 142.449219 9.089844 C 141.964844 8.953125 141.6875 8.960938 141.234375 9.125 M 143.84375 10.992188 L 143.871094 12.90625 L 144.277344 12.9375 C 144.84375 12.976562 144.957031 12.855469 144.957031 12.1875 C 144.957031 11.671875 144.972656 11.632812 145.167969 11.632812 C 145.335938 11.632812 145.453125 11.769531 145.710938 12.269531 L 146.042969 12.90625 L 146.503906 12.9375 C 146.757812 12.953125 147.007812 12.925781 147.058594 12.875 C 147.117188 12.816406 147.019531 12.546875 146.785156 12.117188 L 146.421875 11.453125 L 146.6875 11.175781 C 147.023438 10.824219 147.109375 10.289062 146.90625 9.804688 C 146.675781 9.25 146.203125 9.082031 144.882812 9.082031 L 143.820312 9.078125 L 143.84375 10.992188 M 147.359375 9.195312 C 147.335938 9.261719 147.324219 10.128906 147.339844 11.113281 L 147.363281 12.90625 L 150.101562 12.90625 L 150.132812 12.457031 L 150.160156 12.007812 L 148.457031 12.007812 L 148.402344 9.125 L 147.90625 9.097656 C 147.558594 9.078125 147.394531 9.105469 147.359375 9.195312 M 144.957031 10.308594 L 144.957031 10.6875 L 145.375 10.6875 C 145.707031 10.6875 145.804688 10.648438 145.851562 10.5 C 145.957031 10.164062 145.746094 9.929688 145.332031 9.929688 C 144.957031 9.929688 144.957031 9.929688 144.957031 10.308594 M 9.019531 11.125 C 8.546875 11.371094 1.234375 18.71875 1.03125 19.148438 C 0.804688 19.632812 0.804688 20.367188 1.03125 20.851562 C 1.277344 21.378906 8.601562 28.6875 9.085938 28.886719 C 9.578125 29.089844 10.308594 29.070312 10.792969 28.839844 C 11.078125 28.707031 12.3125 27.53125 14.9375 24.890625 C 18.90625 20.902344 18.917969 20.886719 18.917969 20 C 18.917969 19.113281 18.90625 19.097656 14.933594 15.101562 C 12.488281 12.648438 11.058594 11.277344 10.804688 11.15625 C 10.335938 10.925781 9.425781 10.910156 9.019531 11.125 M 29.699219 11.15625 C 29.457031 11.277344 27.921875 12.75 25.53125 15.152344 C 22.011719 18.691406 21.738281 18.992188 21.636719 19.402344 C 21.503906 19.960938 21.503906 20.164062 21.640625 20.652344 C 21.734375 20.980469 22.328125 21.621094 25.535156 24.855469 C 28.070312 27.410156 29.445312 28.730469 29.699219 28.851562 C 30.191406 29.082031 31 29.082031 31.492188 28.851562 C 31.746094 28.730469 33.128906 27.40625 35.660156 24.855469 C 39.359375 21.132812 39.453125 21.027344 39.566406 20.542969 C 39.695312 19.984375 39.636719 19.511719 39.378906 19.011719 C 39.113281 18.5 31.855469 11.292969 31.425781 11.117188 C 30.933594 10.910156 30.160156 10.929688 29.699219 11.15625 M 9.585938 12.195312 C 9.480469 12.242188 7.75 13.929688 5.738281 15.953125 C 2.15625 19.546875 2.078125 19.636719 2.078125 20 C 2.078125 20.367188 2.152344 20.453125 5.785156 24.089844 L 9.492188 27.800781 L 10.328125 27.800781 L 13.898438 24.234375 C 15.859375 22.273438 17.535156 20.527344 17.617188 20.351562 C 17.710938 20.15625 17.746094 19.933594 17.707031 19.777344 C 17.628906 19.453125 10.652344 12.421875 10.226562 12.234375 C 9.882812 12.085938 9.847656 12.085938 9.585938 12.195312 M 26.507812 15.867188 C 23.023438 19.355469 22.835938 19.558594 22.785156 19.941406 L 22.730469 20.34375 L 26.355469 23.988281 C 28.378906 26.019531 30.117188 27.691406 30.285156 27.761719 C 30.511719 27.863281 30.65625 27.871094 30.851562 27.796875 C 30.996094 27.742188 32.742188 26.074219 34.726562 24.085938 C 38.585938 20.230469 38.613281 20.191406 38.308594 19.609375 C 38.230469 19.460938 36.554688 17.730469 34.589844 15.769531 L 31.015625 12.199219 L 30.175781 12.199219 L 26.507812 15.867188 M 128.636719 13.222656 C 127.683594 13.566406 127.058594 14.285156 126.777344 15.367188 C 126.582031 16.117188 126.488281 19.5 126.617188 21.132812 C 126.773438 23.105469 127.15625 23.847656 128.3125 24.417969 C 128.894531 24.703125 129.019531 24.726562 129.84375 24.726562 C 130.617188 24.726562 130.816406 24.691406 131.261719 24.480469 C 132.191406 24.039062 132.734375 23.285156 132.972656 22.121094 C 133.109375 21.441406 133.109375 16.386719 132.972656 15.699219 C 132.734375 14.507812 132.125 13.683594 131.167969 13.269531 C 130.632812 13.035156 129.234375 13.007812 128.636719 13.222656 M 69.191406 17.605469 C 68.53125 19.496094 67.992188 21.078125 67.992188 21.113281 C 67.992188 21.152344 69.074219 21.183594 70.402344 21.183594 C 71.726562 21.183594 72.808594 21.164062 72.808594 21.140625 C 72.808594 21.109375 71.507812 17.355469 70.5 14.480469 C 70.394531 14.171875 70.351562 14.265625 69.191406 17.605469 M 29.699219 16.207031 C 28.601562 16.472656 27.515625 17.375 27.027344 18.414062 C 26.796875 18.902344 26.773438 19.066406 26.773438 20.003906 C 26.773438 20.984375 26.789062 21.078125 27.078125 21.664062 C 28.054688 23.65625 30.363281 24.457031 32.328125 23.496094 C 33.003906 23.164062 33.828125 22.308594 34.164062 21.585938 C 34.394531 21.097656 34.421875 20.933594 34.421875 20 C 34.421875 19.019531 34.402344 18.921875 34.117188 18.339844 C 33.308594 16.679688 31.441406 15.78125 29.699219 16.207031 M 8.816406 17.21875 C 8.152344 17.472656 7.523438 18.050781 7.207031 18.703125 C 6.980469 19.164062 6.941406 19.355469 6.945312 20 C 6.953125 20.910156 7.1875 21.480469 7.816406 22.113281 C 8.421875 22.714844 8.953125 22.929688 9.867188 22.929688 C 11.132812 22.929688 12.027344 22.367188 12.570312 21.230469 C 12.894531 20.554688 12.9375 19.699219 12.683594 18.953125 C 12.457031 18.28125 11.554688 17.398438 10.871094 17.183594 C 10.210938 16.972656 9.421875 16.984375 8.816406 17.21875 M 9.179688 18.503906 C 8.554688 18.8125 8.128906 19.609375 8.25 20.25 C 8.492188 21.519531 9.980469 22.078125 10.921875 21.25 C 11.5625 20.6875 11.707031 19.859375 11.285156 19.144531 C 10.878906 18.445312 9.902344 18.148438 9.179688 18.503906 M 19.734375 21.359375 C 19.164062 21.546875 18.734375 21.9375 15.230469 25.453125 C 12.714844 27.980469 11.480469 29.285156 11.382812 29.523438 C 11.179688 30.019531 11.195312 30.847656 11.417969 31.28125 C 11.519531 31.472656 13.316406 33.339844 15.410156 35.429688 C 19.414062 39.425781 19.421875 39.429688 20.246094 39.433594 C 21.066406 39.433594 21.097656 39.410156 25.105469 35.421875 C 27.65625 32.886719 28.976562 31.507812 29.09375 31.253906 C 29.308594 30.789062 29.328125 30 29.128906 29.523438 C 28.945312 29.082031 21.746094 21.824219 21.21875 21.546875 C 20.808594 21.335938 20.089844 21.246094 19.734375 21.359375 M 19.785156 22.6875 C 19.316406 22.980469 12.578125 29.8125 12.46875 30.097656 C 12.398438 30.296875 12.40625 30.441406 12.503906 30.667969 C 12.578125 30.835938 14.238281 32.570312 16.257812 34.585938 C 19.804688 38.125 19.890625 38.203125 20.257812 38.203125 C 20.625 38.203125 20.707031 38.125 24.339844 34.492188 L 28.046875 30.777344 L 28.046875 29.933594 L 24.480469 26.355469 C 22.519531 24.386719 20.800781 22.714844 20.664062 22.640625 C 20.324219 22.460938 20.125 22.472656 19.785156 22.6875 M 18.964844 26.46875 C 18.25 26.699219 17.878906 26.941406 17.292969 27.5625 C 15.011719 29.976562 16.351562 33.871094 19.648438 34.425781 C 21.785156 34.785156 23.910156 33.230469 24.285156 31.03125 C 24.625 29.0625 23.460938 27.128906 21.550781 26.484375 C 20.8125 26.234375 19.714844 26.230469 18.964844 26.46875 M 19.105469 27.835938 C 16.363281 29.148438 17.339844 33.207031 20.378906 33.132812 C 21.089844 33.113281 21.996094 32.652344 22.429688 32.082031 C 23.269531 30.980469 23.222656 29.566406 22.304688 28.542969 C 21.714844 27.886719 21.273438 27.683594 20.351562 27.636719 C 19.695312 27.605469 19.527344 27.632812 19.105469 27.835938 M 53.289062 30.820312 C 53.054688 30.929688 52.835938 31.117188 52.746094 31.289062 C 52.546875 31.671875 52.546875 33 52.742188 33.382812 C 52.9375 33.757812 53.394531 33.976562 53.992188 33.988281 C 54.292969 33.992188 54.503906 34.042969 54.53125 34.113281 C 54.582031 34.242188 55.484375 34.28125 55.5625 34.15625 C 55.585938 34.117188 55.527344 33.980469 55.433594 33.855469 C 55.273438 33.640625 55.269531 33.601562 55.40625 33.339844 C 55.613281 32.941406 55.601562 31.722656 55.390625 31.3125 C 55.199219 30.941406 54.609375 30.640625 54.0625 30.640625 C 53.855469 30.640625 53.507812 30.722656 53.289062 30.820312 M 69.039062 30.804688 C 68.859375 30.894531 68.628906 31.085938 68.523438 31.226562 C 68.367188 31.441406 68.351562 31.546875 68.425781 31.839844 C 68.53125 32.277344 68.90625 32.542969 69.632812 32.707031 C 69.921875 32.773438 70.1875 32.871094 70.222656 32.921875 C 70.402344 33.214844 69.617188 33.324219 69.316406 33.050781 C 69.199219 32.945312 69.015625 32.90625 68.734375 32.925781 C 68.359375 32.953125 68.324219 32.976562 68.347656 33.191406 C 68.421875 33.910156 69.835938 34.269531 70.738281 33.800781 C 71.128906 33.601562 71.339844 33.09375 71.207031 32.683594 C 71.085938 32.3125 70.761719 32.113281 70.054688 31.96875 C 69.492188 31.851562 69.320312 31.679688 69.566406 31.476562 C 69.6875 31.375 69.773438 31.390625 70.074219 31.5625 C 70.5 31.808594 70.996094 31.839844 71.078125 31.625 C 71.175781 31.363281 70.933594 31.011719 70.519531 30.824219 C 70.015625 30.597656 69.457031 30.589844 69.039062 30.804688 M 90.308594 30.828125 C 89.789062 31.09375 89.617188 31.46875 89.617188 32.339844 C 89.617188 33.550781 90.023438 33.992188 91.132812 33.996094 C 92.230469 33.996094 92.59375 33.585938 92.59375 32.339844 C 92.59375 31.148438 92.273438 30.753906 91.25 30.671875 C 90.816406 30.636719 90.621094 30.667969 90.308594 30.828125 M 105.152344 30.816406 C 104.371094 31.171875 104.335938 32.089844 105.085938 32.46875 C 105.226562 32.539062 105.5625 32.652344 105.835938 32.714844 C 106.21875 32.804688 106.332031 32.871094 106.332031 33.011719 C 106.332031 33.273438 105.757812 33.292969 105.476562 33.042969 C 105.265625 32.855469 104.550781 32.863281 104.476562 33.058594 C 104.402344 33.242188 104.714844 33.671875 105.03125 33.832031 C 105.683594 34.148438 106.65625 34.050781 107.121094 33.621094 C 107.320312 33.4375 107.371094 33.300781 107.371094 32.976562 C 107.371094 32.421875 107.105469 32.179688 106.269531 31.976562 C 105.828125 31.867188 105.617188 31.769531 105.597656 31.664062 C 105.546875 31.398438 105.9375 31.347656 106.246094 31.574219 C 106.570312 31.8125 107.160156 31.84375 107.246094 31.625 C 107.402344 31.214844 106.617188 30.636719 105.902344 30.640625 C 105.695312 30.640625 105.359375 30.71875 105.152344 30.816406 M 116.78125 30.734375 C 116.167969 30.921875 115.871094 31.449219 115.871094 32.359375 C 115.871094 33.042969 116.0625 33.5 116.46875 33.800781 C 116.675781 33.953125 116.875 33.996094 117.363281 33.996094 C 118.105469 33.992188 118.527344 33.789062 118.75 33.324219 C 118.941406 32.914062 118.9375 31.757812 118.742188 31.34375 C 118.476562 30.78125 117.570312 30.5 116.78125 30.734375 M 136.40625 30.816406 C 135.628906 31.171875 135.59375 32.089844 136.34375 32.46875 C 136.484375 32.539062 136.820312 32.652344 137.09375 32.714844 C 137.476562 32.804688 137.589844 32.871094 137.589844 33.011719 C 137.589844 33.273438 137.015625 33.292969 136.734375 33.042969 C 136.523438 32.855469 135.804688 32.863281 135.734375 33.058594 C 135.660156 33.242188 135.972656 33.671875 136.289062 33.832031 C 136.9375 34.148438 137.914062 34.050781 138.378906 33.621094 C 138.574219 33.4375 138.628906 33.300781 138.628906 32.976562 C 138.628906 32.421875 138.363281 32.179688 137.527344 31.976562 C 137.085938 31.867188 136.875 31.769531 136.855469 31.664062 C 136.804688 31.398438 137.195312 31.347656 137.503906 31.574219 C 137.828125 31.8125 138.417969 31.84375 138.503906 31.625 C 138.660156 31.214844 137.875 30.636719 137.160156 30.640625 C 136.953125 30.640625 136.617188 30.71875 136.40625 30.816406 M 44.949219 32.339844 L 44.949219 33.949219 L 45.800781 33.949219 L 45.804688 33.121094 L 45.8125 32.292969 L 46.015625 32.699219 C 46.339844 33.34375 46.789062 33.367188 47.113281 32.746094 L 47.304688 32.386719 L 47.3125 33.949219 L 48.253906 33.949219 L 48.253906 30.722656 L 47.808594 30.75 C 47.367188 30.78125 47.359375 30.789062 47.007812 31.394531 C 46.808594 31.734375 46.617188 32.019531 46.578125 32.03125 C 46.539062 32.046875 46.347656 31.757812 46.148438 31.394531 L 45.789062 30.734375 L 44.949219 30.734375 L 44.949219 32.339844 M 49.917969 30.8125 C 49.816406 30.976562 48.824219 33.714844 48.824219 33.828125 C 48.824219 33.90625 48.96875 33.949219 49.25 33.949219 C 49.613281 33.949219 49.691406 33.914062 49.785156 33.710938 C 49.882812 33.496094 49.941406 33.476562 50.492188 33.476562 C 51.046875 33.476562 51.101562 33.492188 51.183594 33.710938 C 51.261719 33.914062 51.332031 33.949219 51.695312 33.949219 C 51.925781 33.949219 52.136719 33.917969 52.160156 33.878906 C 52.203125 33.808594 51.210938 31.085938 51.058594 30.851562 C 50.972656 30.71875 49.996094 30.683594 49.917969 30.8125 M 56.28125 31.917969 C 56.28125 33.261719 56.375 33.558594 56.875 33.824219 C 57.296875 34.050781 58.222656 34.046875 58.605469 33.816406 C 59.101562 33.519531 59.15625 33.347656 59.195312 31.980469 L 59.230469 30.722656 L 58.722656 30.75 L 58.21875 30.78125 L 58.191406 31.863281 C 58.175781 32.460938 58.117188 33 58.0625 33.066406 C 57.902344 33.257812 57.4375 33.222656 57.324219 33.007812 C 57.269531 32.90625 57.226562 32.355469 57.226562 31.777344 L 57.226562 30.734375 L 56.28125 30.734375 L 56.28125 31.917969 M 59.964844 32.34375 L 59.964844 33.957031 L 60.957031 33.902344 L 60.984375 32.316406 L 61.007812 30.734375 L 59.964844 30.734375 L 59.964844 32.34375 M 61.800781 30.855469 C 61.777344 30.921875 61.765625 31.636719 61.78125 32.4375 L 61.808594 33.902344 L 63.058594 33.925781 L 64.308594 33.953125 L 64.308594 33.191406 L 62.796875 33.191406 L 62.796875 30.734375 L 62.324219 30.734375 C 62.023438 30.734375 61.832031 30.777344 61.800781 30.855469 M 65.753906 30.847656 C 65.660156 30.96875 64.59375 33.753906 64.59375 33.882812 C 64.59375 33.917969 64.804688 33.949219 65.066406 33.949219 C 65.488281 33.949219 65.550781 33.921875 65.632812 33.710938 C 65.714844 33.492188 65.769531 33.476562 66.316406 33.476562 C 66.839844 33.476562 66.917969 33.5 67.003906 33.6875 C 67.078125 33.859375 67.183594 33.90625 67.542969 33.929688 C 67.863281 33.949219 67.992188 33.921875 67.992188 33.835938 C 67.992188 33.765625 67.742188 33.050781 67.4375 32.246094 L 66.886719 30.78125 L 66.367188 30.753906 C 66.027344 30.734375 65.816406 30.765625 65.753906 30.847656 M 76.25 30.855469 C 76.222656 30.921875 76.214844 31.636719 76.230469 32.4375 L 76.253906 33.902344 L 77.246094 33.957031 L 77.246094 32.90625 L 77.554688 32.90625 C 78.707031 32.898438 79.277344 32.335938 79.03125 31.449219 C 78.875 30.878906 78.527344 30.734375 77.316406 30.734375 C 76.570312 30.734375 76.285156 30.765625 76.25 30.855469 M 79.703125 32.332031 L 79.703125 33.949219 L 80.648438 33.949219 L 80.648438 33.429688 C 80.648438 32.949219 80.664062 32.90625 80.859375 32.910156 C 81.015625 32.914062 81.148438 33.046875 81.355469 33.40625 C 81.632812 33.894531 81.644531 33.902344 82.132812 33.929688 C 82.40625 33.945312 82.628906 33.929688 82.628906 33.898438 C 82.628906 33.867188 82.492188 33.59375 82.328125 33.292969 L 82.023438 32.746094 L 82.28125 32.441406 C 82.636719 32.015625 82.628906 31.503906 82.261719 31.089844 L 81.984375 30.78125 L 79.703125 30.71875 L 79.703125 32.332031 M 83.289062 32.339844 L 83.289062 33.949219 L 85.851562 33.949219 L 85.824219 33.59375 L 85.792969 33.238281 L 85.015625 33.210938 C 84.257812 33.183594 84.234375 33.175781 84.234375 32.953125 C 84.234375 32.726562 84.253906 32.71875 84.945312 32.71875 L 85.652344 32.71875 L 85.652344 31.960938 L 84.945312 31.960938 C 84.25 31.960938 84.234375 31.957031 84.234375 31.726562 C 84.234375 31.492188 84.246094 31.488281 84.988281 31.488281 C 85.714844 31.488281 85.746094 31.480469 85.800781 31.253906 C 85.925781 30.761719 85.855469 30.734375 84.519531 30.734375 L 83.289062 30.734375 L 83.289062 32.339844 M 86.542969 30.855469 C 86.515625 30.921875 86.507812 31.636719 86.523438 32.4375 L 86.546875 33.902344 L 87.492188 33.902344 L 87.519531 33.355469 L 87.550781 32.8125 L 88.957031 32.8125 L 88.957031 32.058594 L 87.539062 32.058594 L 87.539062 31.488281 L 89.050781 31.488281 L 89.050781 30.734375 L 87.820312 30.734375 C 86.902344 30.734375 86.578125 30.765625 86.542969 30.855469 M 93.34375 30.847656 C 93.316406 30.917969 93.308594 31.636719 93.320312 32.4375 L 93.347656 33.902344 L 94.292969 33.902344 L 94.320312 33.402344 C 94.34375 32.992188 94.378906 32.90625 94.527344 32.90625 C 94.644531 32.90625 94.792969 33.074219 94.972656 33.402344 C 95.234375 33.898438 95.238281 33.902344 95.734375 33.929688 C 96.023438 33.945312 96.226562 33.917969 96.226562 33.863281 C 96.226562 33.808594 96.101562 33.550781 95.945312 33.285156 C 95.789062 33.019531 95.660156 32.78125 95.660156 32.75 C 95.660156 32.722656 95.769531 32.574219 95.898438 32.417969 C 96.234375 32.015625 96.21875 31.496094 95.859375 31.089844 L 95.582031 30.78125 L 94.488281 30.75 C 93.625 30.722656 93.386719 30.742188 93.34375 30.847656 M 96.890625 32.34375 L 96.890625 33.957031 L 97.335938 33.929688 L 97.785156 33.902344 L 97.832031 33.191406 L 97.882812 32.480469 L 98.089844 32.835938 C 98.375 33.316406 98.683594 33.320312 99.007812 32.84375 L 99.242188 32.5 L 99.269531 33.199219 L 99.296875 33.902344 L 100.195312 33.957031 L 100.195312 30.734375 L 99.359375 30.734375 L 98.953125 31.433594 L 98.542969 32.136719 L 98.136719 31.433594 L 97.734375 30.734375 L 96.890625 30.734375 L 96.890625 32.34375 M 101.914062 30.851562 C 101.8125 30.972656 100.761719 33.722656 100.761719 33.867188 C 100.761719 33.910156 100.953125 33.949219 101.183594 33.949219 C 101.53125 33.949219 101.632812 33.90625 101.761719 33.710938 C 101.898438 33.503906 101.984375 33.476562 102.472656 33.476562 C 102.976562 33.476562 103.042969 33.5 103.140625 33.710938 C 103.230469 33.917969 103.308594 33.949219 103.703125 33.949219 C 103.953125 33.949219 104.160156 33.910156 104.160156 33.867188 C 104.160156 33.722656 103.109375 30.972656 103.007812 30.851562 C 102.953125 30.785156 102.707031 30.734375 102.460938 30.734375 C 102.214844 30.734375 101.96875 30.785156 101.914062 30.851562 M 112.398438 32.316406 L 112.421875 33.902344 L 113.457031 33.929688 C 114.097656 33.945312 114.59375 33.914062 114.761719 33.84375 C 115.261719 33.636719 115.472656 32.84375 115.128906 32.46875 C 114.972656 32.304688 114.96875 32.257812 115.082031 32.101562 C 115.152344 32.003906 115.210938 31.769531 115.210938 31.574219 C 115.210938 31.296875 115.148438 31.171875 114.917969 30.976562 C 114.640625 30.746094 114.574219 30.734375 113.5 30.734375 L 112.371094 30.734375 L 112.398438 32.316406 M 119.363281 31.109375 L 119.363281 31.488281 L 120.308594 31.488281 L 120.308594 33.949219 L 121.253906 33.949219 L 121.253906 31.488281 L 122.199219 31.488281 L 122.199219 30.734375 L 119.363281 30.734375 L 119.363281 31.109375 M 122.859375 32.335938 L 122.859375 33.949219 L 125.417969 33.949219 L 125.390625 33.59375 L 125.359375 33.238281 L 124.582031 33.210938 C 123.824219 33.183594 123.804688 33.175781 123.804688 32.953125 C 123.804688 32.726562 123.820312 32.71875 124.507812 32.71875 C 125.183594 32.71875 125.21875 32.707031 125.273438 32.484375 C 125.386719 32.03125 125.285156 31.960938 124.515625 31.960938 C 123.820312 31.960938 123.804688 31.957031 123.804688 31.730469 C 123.804688 31.503906 123.824219 31.496094 124.582031 31.46875 L 125.359375 31.441406 L 125.359375 30.78125 L 122.859375 30.726562 L 122.859375 32.335938 M 126.164062 32.339844 L 126.164062 33.949219 L 128.617188 33.949219 L 128.617188 33.191406 L 127.109375 33.191406 L 127.109375 30.734375 L 126.164062 30.734375 L 126.164062 32.339844 M 129.230469 30.851562 C 129.203125 30.917969 129.191406 31.636719 129.207031 32.4375 L 129.234375 33.902344 L 130.484375 33.925781 L 131.734375 33.953125 L 131.734375 33.191406 L 130.230469 33.191406 L 130.203125 31.984375 L 130.175781 30.78125 L 129.726562 30.75 C 129.417969 30.730469 129.261719 30.761719 129.230469 30.851562 M 133.171875 30.851562 C 133.070312 30.972656 132.019531 33.722656 132.019531 33.867188 C 132.019531 33.910156 132.210938 33.949219 132.441406 33.949219 C 132.789062 33.949219 132.890625 33.90625 133.019531 33.710938 C 133.15625 33.503906 133.242188 33.476562 133.71875 33.476562 C 134.195312 33.476562 134.28125 33.503906 134.417969 33.710938 C 134.546875 33.90625 134.648438 33.949219 134.996094 33.949219 C 135.226562 33.949219 135.417969 33.910156 135.417969 33.867188 C 135.417969 33.722656 134.367188 30.972656 134.265625 30.851562 C 134.210938 30.785156 133.964844 30.734375 133.71875 30.734375 C 133.472656 30.734375 133.226562 30.785156 133.171875 30.851562 M 53.734375 31.582031 C 53.585938 31.730469 53.542969 31.898438 53.542969 32.324219 C 53.542969 32.964844 53.6875 33.214844 54.0625 33.214844 C 54.4375 33.214844 54.582031 32.964844 54.582031 32.324219 C 54.582031 31.75 54.382812 31.394531 54.0625 31.394531 C 53.984375 31.394531 53.835938 31.480469 53.734375 31.582031 M 90.828125 31.492188 C 90.613281 31.621094 90.507812 32.359375 90.644531 32.8125 C 90.765625 33.210938 90.992188 33.324219 91.332031 33.15625 C 91.527344 33.058594 91.558594 32.96875 91.582031 32.386719 C 91.605469 31.804688 91.585938 31.707031 91.40625 31.558594 C 91.175781 31.375 91.058594 31.359375 90.828125 31.492188 M 113.414062 31.679688 C 113.414062 31.9375 113.445312 31.960938 113.726562 31.960938 C 114.121094 31.960938 114.289062 31.808594 114.164062 31.570312 C 114.101562 31.453125 113.964844 31.394531 113.742188 31.394531 C 113.441406 31.394531 113.414062 31.417969 113.414062 31.679688 M 117.121094 31.542969 C 116.9375 31.667969 116.910156 31.773438 116.910156 32.335938 C 116.910156 32.738281 116.953125 33.011719 117.027344 33.070312 C 117.273438 33.261719 117.472656 33.273438 117.679688 33.105469 C 117.859375 32.957031 117.886719 32.847656 117.882812 32.289062 C 117.878906 31.78125 117.839844 31.621094 117.707031 31.519531 C 117.484375 31.359375 117.375 31.363281 117.121094 31.542969 M 77.246094 31.824219 C 77.246094 32.15625 77.253906 32.160156 77.589844 32.132812 C 78.257812 32.078125 78.289062 31.488281 77.628906 31.488281 C 77.253906 31.488281 77.246094 31.496094 77.246094 31.824219 M 80.648438 31.773438 C 80.648438 32.0625 80.65625 32.066406 81.046875 32.039062 C 81.40625 32.011719 81.449219 31.984375 81.449219 31.773438 C 81.449219 31.5625 81.40625 31.535156 81.046875 31.507812 C 80.65625 31.480469 80.648438 31.484375 80.648438 31.773438 M 94.339844 31.773438 C 94.339844 32.039062 94.363281 32.058594 94.710938 32.058594 C 95.089844 32.058594 95.191406 31.953125 95.117188 31.65625 C 95.085938 31.53125 94.976562 31.488281 94.707031 31.488281 C 94.363281 31.488281 94.339844 31.507812 94.339844 31.773438 M 50.3125 32.199219 L 50.152344 32.625 L 50.484375 32.625 C 50.789062 32.625 50.8125 32.605469 50.753906 32.410156 C 50.640625 32.058594 50.527344 31.773438 50.496094 31.773438 C 50.480469 31.773438 50.398438 31.964844 50.3125 32.199219 M 66.222656 31.960938 C 65.96875 32.609375 65.96875 32.625 66.328125 32.625 L 66.660156 32.625 L 66.535156 32.316406 C 66.46875 32.148438 66.390625 31.945312 66.363281 31.867188 C 66.328125 31.765625 66.289062 31.789062 66.222656 31.960938 M 73.230469 32.003906 C 72.9375 32.296875 72.933594 32.53125 73.214844 32.796875 C 73.492188 33.054688 73.84375 33.058594 74.113281 32.808594 C 74.394531 32.546875 74.375 32.210938 74.070312 31.96875 C 73.742188 31.710938 73.511719 31.722656 73.230469 32.003906 M 109.371094 31.992188 C 109.128906 32.25 109.109375 32.503906 109.3125 32.792969 C 109.527344 33.101562 110.035156 33.078125 110.292969 32.753906 C 110.546875 32.429688 110.539062 32.289062 110.257812 32.003906 C 109.964844 31.714844 109.636719 31.707031 109.371094 31.992188 M 102.28125 32.164062 C 102.132812 32.589844 102.144531 32.625 102.460938 32.625 C 102.617188 32.625 102.746094 32.589844 102.746094 32.542969 C 102.746094 32.371094 102.53125 31.867188 102.460938 31.867188 C 102.417969 31.867188 102.339844 32 102.28125 32.164062 M 133.539062 32.164062 C 133.390625 32.589844 133.402344 32.625 133.71875 32.625 C 133.875 32.625 134 32.589844 134 32.542969 C 134 32.371094 133.789062 31.867188 133.71875 31.867188 C 133.675781 31.867188 133.597656 32 133.539062 32.164062 M 113.414062 32.957031 C 113.414062 33.257812 113.4375 33.285156 113.691406 33.285156 C 114.105469 33.285156 114.265625 33.195312 114.265625 32.957031 C 114.265625 32.714844 114.105469 32.625 113.691406 32.625 C 113.4375 32.625 113.414062 32.652344 113.414062 32.957031 "/>
</g>
</svg>
