<svg xmlns="http://www.w3.org/2000/svg" width="1599" height="423" viewBox="0 0 1599 423" version="1.1"><path d="" stroke="none" fill="#000000" fill-rule="evenodd"/><path d="M 206.556 7.493 C 203.505 8.579, 193.472 18.035, 162.301 49.199 C 140.130 71.365, 121.273 91.013, 120.395 92.862 C 118.282 97.316, 118.334 106.781, 120.497 111.106 C 122.834 115.781, 199.503 192.601, 204.500 195.276 C 210.382 198.424, 219.297 198.198, 225.107 194.753 C 227.523 193.321, 246.878 174.678, 268.117 153.324 C 310.898 110.314, 310.836 110.393, 309.709 99.474 C 309.397 96.443, 308.234 92.509, 307.125 90.732 C 306.017 88.954, 287.197 69.689, 265.305 47.920 C 231.541 14.346, 224.875 8.162, 221.384 7.170 C 216.038 5.651, 211.446 5.751, 206.556 7.493 M 171.316 58.197 C 144.441 85.040, 131.882 98.259, 131.470 100.138 C 131.138 101.648, 131.394 103.922, 132.038 105.191 C 132.682 106.461, 150.373 124.713, 171.351 145.751 C 212.069 186.586, 212.471 186.909, 218.629 183.664 C 220.208 182.831, 238.488 165.104, 259.250 144.269 L 297 106.388 297 101.958 L 297 97.528 257.736 58.264 C 219.283 19.811, 218.390 19, 214.515 19 C 210.641 19, 209.739 19.818, 171.316 58.197 M 204.754 61.084 C 193.496 63.738, 181.310 73.836, 176.196 84.747 C 173.758 89.950, 173.500 91.600, 173.500 102 C 173.500 112.591, 173.723 113.954, 176.322 119.248 C 188.517 144.091, 218.660 151.074, 240.816 134.189 C 245.876 130.333, 251.812 121.348, 254.018 114.207 C 257.320 103.515, 256.285 92.329, 251.043 82.075 C 248.195 76.503, 239.632 67.873, 234.205 65.105 C 225.305 60.564, 213.687 58.978, 204.754 61.084 M 206.206 89.143 C 202.484 91.526, 199 97.570, 199 101.644 C 199 106.321, 202.666 112.444, 206.886 114.816 C 213.970 118.797, 222.237 116.800, 226.819 110 C 230.035 105.227, 229.588 96.327, 225.937 92.419 C 220.531 86.632, 212.269 85.260, 206.206 89.143 M 527 92.624 C 490.732 97.247, 468.426 111.247, 455.971 137.204 C 449.942 149.770, 448.173 160.056, 447.411 187 C 445.846 242.311, 450.786 263.704, 469.485 282.598 C 484.304 297.571, 501.531 304.655, 528.904 307.032 C 565.081 310.173, 597.668 300.007, 616.726 279.634 C 627.137 268.505, 632.042 257.918, 634.160 242.013 C 635.340 233.151, 635.322 232.972, 633.005 230.505 L 630.651 228 606.048 228 C 585.801 228, 581.066 228.265, 579.304 229.499 C 578.094 230.347, 576.221 233.832, 574.994 237.518 C 570.609 250.694, 563.680 257.651, 552 260.604 C 538.518 264.013, 523.660 260.699, 515.707 252.510 C 507.540 244.101, 505.586 231.913, 506.247 193.500 C 506.663 169.282, 506.935 165.809, 508.883 159.792 C 511.814 150.737, 516.216 145.221, 523.472 141.510 C 529.018 138.674, 530.028 138.500, 540.929 138.507 C 550.866 138.513, 553.206 138.838, 557.500 140.808 C 565.632 144.540, 571.765 151.833, 574.482 161 C 576.058 166.318, 578.196 169.768, 580.595 170.861 C 582.237 171.610, 591.150 172, 606.593 172 L 630.091 172 632.667 169.424 C 635.116 166.975, 635.209 166.496, 634.541 159.720 C 632.881 142.873, 626.009 129.026, 613.364 117.048 C 601.326 105.645, 585.852 98.170, 566.610 94.461 C 558.584 92.913, 533.758 91.762, 527 92.624 M 1358.002 93.127 C 1324.300 97.028, 1298.449 115.139, 1288.002 142.167 C 1282.842 155.519, 1282 163.632, 1282 200 C 1282 235.621, 1282.795 243.768, 1287.561 256.979 C 1294.881 277.273, 1310.219 292.554, 1331.158 300.414 C 1352.936 308.589, 1383.610 309.839, 1408.364 303.560 C 1432.456 297.448, 1450.229 283.542, 1459.562 263.500 C 1466.953 247.630, 1468.326 236.018, 1467.756 194.198 C 1467.330 162.913, 1467.199 161.079, 1464.716 151.761 C 1458.739 129.330, 1445.817 113.278, 1425.500 103.048 C 1407.171 93.819, 1382.877 90.248, 1358.002 93.127 M 716.500 96.386 C 714.849 97.105, 712.944 98.363, 712.265 99.181 C 710.596 101.191, 640 295.469, 640 298.050 C 640 299.173, 641.105 301.195, 642.455 302.545 C 644.905 304.996, 644.941 305, 665.987 305 C 687.426 305, 692.459 304.270, 694.604 300.852 C 695.071 300.108, 697.985 292.750, 701.080 284.500 L 706.708 269.500 745.243 269.238 C 781.248 268.994, 783.823 269.092, 784.476 270.738 C 784.861 271.707, 787.162 277.813, 789.591 284.306 C 795.473 300.033, 796.539 301.909, 800.534 303.579 C 805.107 305.490, 843.255 305.601, 846.983 303.714 C 852.793 300.774, 853.901 304.477, 816.088 200.486 C 796.729 147.247, 780.210 102.372, 779.378 100.765 C 776.650 95.488, 773.718 94.996, 745.282 95.039 C 726.320 95.068, 718.706 95.424, 716.500 96.386 M 873.364 96.170 C 872.189 96.738, 870.727 98.304, 870.114 99.649 C 869.319 101.393, 869 130.407, 869 200.873 L 869 299.651 871.578 302.076 C 874.112 304.459, 874.513 304.505, 895.020 304.806 C 912.508 305.062, 916.379 304.855, 918.942 303.530 C 920.624 302.660, 922.103 301.848, 922.229 301.724 C 922.355 301.601, 922.692 276.664, 922.979 246.309 L 923.500 191.118 939.443 220.629 C 950.983 241.988, 956.231 250.741, 958.443 252.320 C 961.165 254.261, 962.779 254.500, 973.177 254.500 C 983.359 254.500, 985.202 254.240, 987.578 252.466 C 989.294 251.185, 996.353 239.339, 1006.648 220.466 L 1022.993 190.500 1022.997 244.827 L 1023 299.154 1025.923 302.077 L 1028.846 305 1049.473 305 C 1070.947 305, 1074.890 304.334, 1076.379 300.455 C 1076.720 299.565, 1077 254.148, 1077 199.529 C 1077 103.276, 1076.941 100.149, 1075.090 97.861 C 1073.215 95.542, 1072.822 95.494, 1053.114 95.192 C 1036.285 94.934, 1032.499 95.144, 1029.652 96.495 C 1025.960 98.247, 1025.601 98.843, 990.415 161.730 C 981.112 178.356, 973.274 191.969, 972.997 191.980 C 972.720 191.991, 960.759 170.963, 946.417 145.250 C 923.511 104.186, 919.924 98.287, 916.920 96.752 C 914.003 95.260, 910.705 95.013, 894.500 95.069 C 883.604 95.107, 874.589 95.576, 873.364 96.170 M 1106.455 97.455 L 1104 99.909 1104 199.531 L 1104 299.154 1106.923 302.077 L 1109.846 305 1182.973 305 C 1260.437 305, 1260.639 304.988, 1262.379 300.455 C 1262.720 299.565, 1263 290.978, 1263 281.373 C 1263 264.164, 1262.964 263.873, 1260.545 261.455 L 1258.091 259 1208.545 259 L 1159 259 1159 240 L 1159 221 1204.326 221 L 1249.651 221 1251.826 218.686 C 1253.882 216.496, 1254 215.449, 1254 199.360 C 1254 182.871, 1253.929 182.282, 1251.686 180.174 C 1249.380 178.008, 1249.202 178, 1204.186 178 L 1159 178 1159 159.500 L 1159 141 1206.453 141 C 1239.100 141, 1254.666 140.654, 1256.343 139.890 C 1260.375 138.053, 1261 135.030, 1261 117.376 L 1261 100.846 1258.077 97.923 L 1255.154 95 1182.031 95 L 1108.909 95 1106.455 97.455 M 1495.583 96.483 C 1489.153 98.775, 1486.500 102.168, 1486.500 108.105 C 1486.500 112.502, 1486.906 113.527, 1489.606 115.939 C 1491.615 117.734, 1495.218 119.328, 1499.814 120.454 C 1507.447 122.325, 1510.170 124.230, 1508.130 126.270 C 1506.276 128.124, 1499.023 127.752, 1497.543 125.727 C 1496.604 124.444, 1494.829 124, 1490.640 124 C 1484.341 124, 1483.810 124.799, 1486.566 130.128 C 1488.740 134.332, 1494.940 136.951, 1502.782 136.978 C 1512.952 137.014, 1519.489 132.922, 1520.645 125.798 C 1521.824 118.537, 1516.185 113.279, 1505.342 111.527 C 1500.143 110.687, 1497.467 108.830, 1498.306 106.645 C 1499.182 104.363, 1503.507 104.576, 1506.875 107.066 C 1510.878 110.025, 1518.358 109.498, 1518.823 106.223 C 1519.264 103.117, 1513.521 97.516, 1508.453 96.109 C 1503.327 94.686, 1500.389 94.771, 1495.583 96.483 M 1523.229 116.250 L 1523.500 136.500 1527.824 136.811 C 1533.812 137.242, 1535 135.929, 1535 128.878 C 1535 123.448, 1535.172 123, 1537.250 123.003 C 1539.014 123.005, 1540.256 124.462, 1543 129.753 L 1546.500 136.500 1551.390 136.810 C 1554.079 136.981, 1556.715 136.685, 1557.248 136.152 C 1557.874 135.526, 1556.853 132.688, 1554.369 128.146 L 1550.521 121.110 1553.341 118.166 C 1556.890 114.462, 1557.786 108.818, 1555.641 103.682 C 1553.199 97.839, 1548.197 96.049, 1534.229 96.022 L 1522.959 96 1523.229 116.250 M 1560.466 97.228 C 1560.185 97.962, 1560.077 107.098, 1560.227 117.531 L 1560.500 136.500 1575 136.500 L 1589.500 136.500 1589.805 131.750 L 1590.110 127 1581.081 127 L 1572.052 127 1571.776 111.750 L 1571.500 96.500 1566.239 96.197 C 1562.552 95.985, 1560.825 96.294, 1560.466 97.228 M 1535 109 L 1535 113 1539.433 113 C 1542.959 113, 1543.993 112.599, 1544.488 111.038 C 1545.618 107.476, 1543.353 105, 1538.965 105 C 1535.006 105, 1535 105.006, 1535 109 M 95.500 117.641 C 90.505 120.241, 13.056 197.945, 10.920 202.500 C 8.511 207.637, 8.511 215.363, 10.920 220.500 C 13.543 226.094, 91.106 303.353, 96.218 305.465 C 101.414 307.610, 109.157 307.407, 114.301 304.989 C 117.305 303.577, 130.376 291.136, 158.168 263.239 C 200.196 221.052, 200.327 220.890, 200.327 211.500 C 200.327 202.109, 200.198 201.951, 158.128 159.719 C 132.262 133.754, 117.088 119.255, 114.434 117.969 C 109.444 115.552, 99.834 115.386, 95.500 117.641 M 314.482 117.990 C 311.946 119.246, 295.682 134.822, 270.369 160.240 C 233.087 197.675, 230.194 200.829, 229.137 205.193 C 227.706 211.101, 227.711 213.251, 229.169 218.384 C 230.161 221.875, 236.427 228.631, 270.419 262.861 C 297.235 289.865, 311.824 303.840, 314.500 305.089 C 319.725 307.528, 328.275 307.528, 333.500 305.089 C 336.172 303.842, 350.822 289.823, 377.627 262.861 C 416.779 223.481, 417.785 222.372, 418.984 217.223 C 420.358 211.320, 419.745 206.346, 416.989 201.047 C 414.186 195.656, 337.314 119.427, 332.782 117.545 C 327.559 115.375, 319.363 115.574, 314.482 117.990 M 101.500 128.978 C 100.400 129.446, 82.063 147.318, 60.750 168.694 C 22.830 206.727, 22 207.644, 22 211.516 C 22 215.390, 22.812 216.284, 61.264 254.736 L 100.528 294 104.958 294 L 109.388 294 147.176 256.298 C 167.959 235.562, 185.686 217.074, 186.569 215.213 C 187.553 213.139, 187.922 210.799, 187.523 209.165 C 186.686 205.737, 112.793 131.352, 108.282 129.395 C 104.646 127.819, 104.278 127.796, 101.500 128.978 M 280.707 167.809 C 243.790 204.691, 241.833 206.830, 241.288 210.886 L 240.716 215.155 279.108 253.682 C 300.513 275.162, 318.917 292.824, 320.702 293.598 C 323.093 294.635, 324.613 294.724, 326.702 293.947 C 328.241 293.375, 346.713 275.717, 367.751 254.708 C 408.586 213.927, 408.911 213.522, 405.659 207.371 C 404.824 205.792, 387.108 187.512, 366.290 166.750 L 328.439 129 323.996 129 L 319.553 129 280.707 167.809 M 1362.205 139.829 C 1352.090 143.447, 1345.488 151.045, 1342.507 162.500 C 1340.444 170.426, 1339.449 206.202, 1340.810 223.500 C 1342.448 244.322, 1346.509 252.172, 1358.765 258.205 C 1364.922 261.236, 1366.221 261.499, 1374.979 261.490 C 1383.161 261.481, 1385.274 261.112, 1390 258.867 C 1399.829 254.199, 1405.589 246.254, 1408.082 233.927 C 1409.533 226.754, 1409.535 173.283, 1408.085 166 C 1405.579 153.416, 1399.115 144.714, 1389 140.310 C 1383.308 137.832, 1368.532 137.567, 1362.205 139.829 M 732.693 186.161 C 725.712 206.185, 720 222.891, 720 223.284 C 720 223.678, 731.475 224, 745.500 224 C 759.525 224, 771 223.805, 771 223.566 C 771 223.232, 757.226 183.519, 746.569 153.127 C 745.423 149.857, 744.996 150.874, 732.693 186.161 M 314.500 171.386 C 302.886 174.210, 291.363 183.721, 286.196 194.747 C 283.779 199.904, 283.500 201.641, 283.500 211.521 C 283.500 221.924, 283.682 222.911, 286.735 229.113 C 297.090 250.147, 321.511 258.646, 342.320 248.457 C 349.498 244.942, 358.218 235.907, 361.791 228.281 C 364.222 223.094, 364.500 221.370, 364.500 211.500 C 364.500 201.142, 364.312 200.116, 361.283 193.926 C 352.710 176.408, 332.966 166.895, 314.500 171.386 M 93.357 182.082 C 86.323 184.787, 79.685 190.902, 76.311 197.786 C 73.929 202.644, 73.517 204.699, 73.562 211.500 C 73.625 221.111, 76.129 227.175, 82.780 233.830 C 89.176 240.230, 94.808 242.470, 104.500 242.470 C 117.879 242.470, 127.344 236.527, 133.118 224.500 C 136.544 217.365, 136.999 208.303, 134.329 200.428 C 131.926 193.344, 122.345 183.998, 115.135 181.706 C 108.123 179.476, 99.757 179.621, 93.357 182.082 M 97.223 195.661 C 90.579 198.936, 86.091 207.363, 87.374 214.154 C 89.910 227.579, 105.698 233.472, 115.670 224.716 C 122.437 218.775, 123.950 210.004, 119.514 202.434 C 115.183 195.043, 104.847 191.903, 97.223 195.661 M 208.994 225.879 C 202.939 227.855, 198.399 231.976, 161.285 269.185 C 134.638 295.900, 121.579 309.691, 120.535 312.218 C 118.375 317.449, 118.561 326.234, 120.928 330.790 C 121.988 332.830, 141.001 352.574, 163.178 374.665 C 205.589 416.910, 205.671 416.978, 214.384 416.994 C 223.079 417.011, 223.402 416.745, 265.861 374.581 C 292.865 347.765, 306.840 333.176, 308.089 330.500 C 310.380 325.591, 310.547 317.254, 308.455 312.218 C 306.511 307.537, 230.266 230.772, 224.682 227.872 C 220.358 225.627, 212.732 224.658, 208.994 225.879 M 209.500 239.903 C 204.546 243.033, 133.176 315.276, 132.053 318.298 C 131.276 320.387, 131.365 321.907, 132.402 324.298 C 133.176 326.083, 150.781 344.430, 172.176 365.750 C 209.725 403.168, 210.646 404, 214.516 404 C 218.390 404, 219.285 403.187, 257.736 364.736 L 297 325.472 297 321.016 L 297 316.561 259.250 278.710 C 238.488 257.892, 220.285 240.216, 218.800 239.430 C 215.202 237.525, 213.094 237.632, 209.500 239.903 M 200.836 279.919 C 193.251 282.345, 189.329 284.902, 183.115 291.472 C 158.984 316.986, 173.154 358.167, 208.085 364.041 C 230.696 367.843, 253.194 351.398, 257.180 328.155 C 260.750 307.339, 248.419 286.879, 228.199 280.067 C 220.411 277.443, 208.774 277.380, 200.836 279.919 M 202.329 294.366 C 173.296 308.229, 183.614 351.163, 215.788 350.368 C 223.335 350.182, 232.925 345.288, 237.510 339.283 C 246.426 327.606, 245.895 312.660, 236.180 301.855 C 229.927 294.900, 225.260 292.738, 215.500 292.276 C 208.582 291.948, 206.801 292.230, 202.329 294.366 M 564.316 325.943 C 561.809 327.082, 559.505 329.057, 558.566 330.872 C 556.460 334.944, 556.429 348.995, 558.517 353.033 C 560.558 356.980, 565.400 359.320, 571.732 359.419 C 574.925 359.468, 577.154 359.987, 577.451 360.750 C 577.985 362.124, 587.550 362.538, 588.363 361.222 C 588.627 360.794, 588.017 359.348, 587.006 358.009 C 585.313 355.763, 585.290 355.339, 586.716 352.582 C 588.893 348.372, 588.803 335.453, 586.565 331.126 C 584.532 327.194, 578.276 324.044, 572.500 324.044 C 570.300 324.044, 566.617 324.899, 564.316 325.943 M 731.071 325.752 C 729.185 326.713, 726.741 328.729, 725.640 330.231 C 723.975 332.503, 723.794 333.590, 724.569 336.697 C 725.722 341.322, 729.674 344.161, 737.351 345.879 C 740.439 346.570, 743.249 347.594, 743.596 348.155 C 745.501 351.238, 737.207 352.402, 734.002 349.502 C 732.776 348.392, 730.821 347.974, 727.852 348.188 C 723.879 348.473, 723.522 348.718, 723.754 351 C 724.527 358.601, 739.501 362.412, 749.096 357.450 C 753.221 355.317, 755.467 349.946, 754.041 345.625 C 752.754 341.725, 749.311 339.590, 741.837 338.056 C 735.887 336.836, 734.074 335.014, 736.666 332.862 C 737.949 331.797, 738.869 331.956, 742.055 333.789 C 746.573 336.390, 751.791 336.708, 752.663 334.436 C 753.722 331.676, 751.125 327.959, 746.749 325.973 C 741.438 323.562, 735.528 323.479, 731.071 325.752 M 956.334 325.999 C 950.827 328.810, 949 332.796, 949 342 C 949 354.785, 953.297 359.469, 965.044 359.489 C 976.670 359.509, 980.500 355.174, 980.500 342 C 980.500 329.408, 977.136 325.230, 966.286 324.345 C 961.709 323.972, 959.629 324.317, 956.334 325.999 M 1113.480 325.870 C 1105.216 329.624, 1104.845 339.343, 1112.811 343.372 C 1114.290 344.120, 1117.862 345.287, 1120.750 345.966 C 1124.809 346.919, 1126 347.631, 1126 349.100 C 1126 351.866, 1119.905 352.074, 1116.921 349.410 C 1114.701 347.427, 1107.111 347.548, 1106.332 349.578 C 1105.573 351.554, 1108.852 356.093, 1112.236 357.755 C 1119.106 361.127, 1129.446 360.096, 1134.353 355.549 C 1136.438 353.616, 1137 352.167, 1137 348.722 C 1137 342.863, 1134.171 340.298, 1125.347 338.156 C 1120.640 337.014, 1118.423 335.983, 1118.204 334.835 C 1117.674 332.056, 1121.818 331.489, 1125.074 333.896 C 1128.502 336.431, 1134.775 336.749, 1135.664 334.433 C 1137.334 330.080, 1128.996 323.980, 1121.434 324.022 C 1119.270 324.034, 1115.691 324.866, 1113.480 325.870 M 1236.643 325.028 C 1230.132 326.979, 1226.999 332.565, 1227.002 342.218 C 1227.003 349.415, 1229.023 354.274, 1233.323 357.429 C 1235.518 359.039, 1237.634 359.498, 1242.823 359.489 C 1250.674 359.476, 1255.151 357.309, 1257.484 352.393 C 1259.535 348.069, 1259.491 335.836, 1257.407 331.445 C 1254.584 325.496, 1244.983 322.529, 1236.643 325.028 M 1444.480 325.870 C 1436.216 329.624, 1435.845 339.343, 1443.811 343.372 C 1445.290 344.120, 1448.862 345.287, 1451.750 345.966 C 1455.809 346.919, 1457 347.631, 1457 349.100 C 1457 351.866, 1450.905 352.074, 1447.921 349.410 C 1445.701 347.427, 1438.111 347.548, 1437.332 349.578 C 1436.573 351.554, 1439.852 356.093, 1443.236 357.755 C 1450.106 361.127, 1460.446 360.096, 1465.353 355.549 C 1467.438 353.616, 1468 352.167, 1468 348.722 C 1468 342.863, 1465.171 340.298, 1456.347 338.156 C 1451.640 337.014, 1449.423 335.983, 1449.204 334.835 C 1448.674 332.056, 1452.818 331.489, 1456.074 333.896 C 1459.502 336.431, 1465.775 336.749, 1466.664 334.433 C 1468.334 330.080, 1459.996 323.980, 1452.434 324.022 C 1450.270 324.034, 1446.691 324.866, 1444.480 325.870 M 476 342 L 476 359 480.500 359 L 485 359 485.062 350.250 L 485.124 341.500 487.276 345.785 C 490.712 352.627, 495.456 352.838, 498.906 346.300 L 500.912 342.500 500.956 350.750 L 501 359 506 359 L 511 359 511 341.945 L 511 324.890 506.271 325.195 C 501.596 325.496, 501.498 325.575, 497.768 332 C 495.693 335.575, 493.659 338.609, 493.248 338.743 C 492.836 338.876, 490.786 335.839, 488.691 331.993 L 484.883 325 480.441 325 L 476 325 476 342 M 528.590 325.854 C 527.535 327.561, 517.013 356.535, 517.006 357.750 C 517.002 358.567, 518.568 359, 521.521 359 C 525.374 359, 526.211 358.630, 527.182 356.500 C 528.223 354.215, 528.867 354, 534.685 354 C 540.554 354, 541.124 354.195, 542 356.500 C 542.818 358.652, 543.573 359, 547.416 359 C 549.872 359, 552.087 358.663, 552.338 358.250 C 552.782 357.521, 542.311 328.752, 540.691 326.250 C 539.775 324.835, 529.429 324.496, 528.590 325.854 M 596 337.550 C 596 351.730, 596.976 354.868, 602.267 357.691 C 606.743 360.079, 616.537 360.038, 620.582 357.614 C 625.851 354.457, 626.430 352.659, 626.830 338.194 L 627.199 324.889 621.849 325.194 L 616.500 325.500 616.215 336.939 C 616.058 343.270, 615.445 348.964, 614.843 349.689 C 613.168 351.707, 608.238 351.313, 607.035 349.066 C 606.466 348.002, 606 342.152, 606 336.066 L 606 325 601 325 L 596 325 596 337.550 M 635 342.052 L 635 359.105 640.250 358.802 L 645.500 358.500 645.774 341.750 L 646.048 325 640.524 325 L 635 325 635 342.052 M 654.441 326.292 C 654.169 327.003, 654.070 334.540, 654.223 343.042 L 654.500 358.500 667.750 358.779 L 681 359.058 681 355.029 L 681 351 673 351 L 665 351 665 338 L 665 325 659.969 325 C 656.779 325, 654.756 325.473, 654.441 326.292 M 696.295 326.205 C 695.286 327.479, 684 356.944, 684 358.303 C 684 358.686, 686.261 359, 689.025 359 C 693.464 359, 694.160 358.709, 695 356.500 C 695.875 354.199, 696.451 354, 702.238 354 C 707.799 354, 708.640 354.260, 709.513 356.250 C 710.304 358.053, 711.445 358.561, 715.250 358.805 C 718.648 359.023, 719.998 358.738, 719.994 357.805 C 719.990 357.087, 717.356 349.525, 714.140 341 L 708.292 325.500 702.806 325.205 C 699.200 325.011, 696.969 325.353, 696.295 326.205 M 807.441 326.292 C 807.169 327.003, 807.070 334.540, 807.223 343.042 L 807.500 358.500 812.750 358.802 L 818 359.105 818 353.552 L 818 348 821.250 347.976 C 833.460 347.887, 839.482 341.952, 836.890 332.565 C 835.225 326.535, 831.556 325.008, 818.719 325.004 C 810.826 325.001, 807.804 325.346, 807.441 326.292 M 844 341.916 L 844 359 849 359 L 854 359 854 353.500 C 854 348.453, 854.185 348.003, 856.250 348.033 C 857.897 348.058, 859.305 349.466, 861.500 353.283 C 864.460 358.431, 864.570 358.504, 869.750 358.802 C 872.638 358.969, 875 358.824, 875 358.481 C 875 358.139, 873.557 355.253, 871.793 352.069 L 868.586 346.280 871.293 343.063 C 875.086 338.556, 875.007 333.160, 871.084 328.766 L 868.169 325.500 856.084 325.166 L 844 324.833 844 341.916 M 882 342 L 882 359 895.560 359 L 909.121 359 908.810 355.250 L 908.500 351.500 900.250 351.210 C 892.232 350.927, 892 350.850, 892 348.460 C 892 346.065, 892.200 346, 899.500 346 L 907 346 907 342 L 907 338 899.500 338 C 892.167 338, 892 337.944, 892 335.500 C 892 333.042, 892.135 333, 899.981 333 C 907.658 333, 907.986 332.905, 908.589 330.502 C 909.893 325.306, 909.140 325, 895.031 325 L 882 325 882 342 M 916.441 326.292 C 916.169 327.003, 916.070 334.540, 916.223 343.042 L 916.500 358.500 921.500 358.500 L 926.500 358.500 926.800 352.750 L 927.100 347 934.550 347 L 942 347 942 343 L 942 339 934.500 339 L 927 339 927 336 L 927 333 935 333 L 943 333 943 329 L 943 325 929.969 325 C 920.240 325, 916.812 325.327, 916.441 326.292 M 988.474 326.206 C 988.184 326.964, 988.070 334.540, 988.223 343.042 L 988.500 358.500 993.500 358.500 L 998.500 358.500 998.802 353.250 C 999.054 348.881, 999.421 348, 1000.989 348 C 1002.238 348, 1003.821 349.770, 1005.687 353.250 C 1008.482 358.466, 1008.534 358.502, 1013.750 358.802 C 1016.812 358.979, 1019 358.684, 1019 358.096 C 1019 357.542, 1017.650 354.798, 1016 352 C 1014.350 349.202, 1013 346.659, 1013 346.350 C 1013 346.041, 1014.125 344.452, 1015.500 342.818 C 1019.079 338.564, 1018.916 333.058, 1015.084 328.766 L 1012.169 325.500 1000.586 325.164 C 991.436 324.899, 988.892 325.117, 988.474 326.206 M 1026 342.055 L 1026 359.110 1030.750 358.805 L 1035.500 358.500 1036 351 L 1036.500 343.500 1038.716 347.250 C 1041.714 352.323, 1045.009 352.353, 1048.417 347.337 L 1050.906 343.674 1051.203 351.087 L 1051.500 358.500 1056.250 358.805 L 1061 359.110 1061 342.055 L 1061 325 1056.587 325 L 1052.175 325 1047.851 332.415 L 1043.528 339.831 1039.230 332.415 L 1034.932 325 1030.466 325 L 1026 325 1026 342.055 M 1079.211 326.250 C 1078.136 327.548, 1067 356.636, 1067 358.144 C 1067 358.615, 1069.015 359, 1071.477 359 C 1075.149 359, 1076.248 358.550, 1077.592 356.500 C 1079.033 354.300, 1079.940 354, 1085.136 354 C 1090.466 354, 1091.154 354.244, 1092.182 356.500 C 1093.169 358.665, 1093.969 359, 1098.161 359 C 1100.822 359, 1103 358.615, 1103 358.144 C 1103 356.636, 1091.864 327.548, 1090.789 326.250 C 1090.221 325.563, 1087.615 325, 1085 325 C 1082.385 325, 1079.779 325.563, 1079.211 326.250 M 1190.226 341.750 L 1190.500 358.500 1201.456 358.786 C 1208.237 358.963, 1213.495 358.623, 1215.253 357.895 C 1220.559 355.697, 1222.799 347.308, 1219.130 343.370 C 1217.511 341.632, 1217.444 341.113, 1218.630 339.491 C 1219.384 338.461, 1220 335.944, 1220 333.898 C 1220 330.971, 1219.344 329.625, 1216.923 327.589 C 1213.989 325.120, 1213.293 325, 1201.899 325 L 1189.952 325 1190.226 341.750 M 1264 329 L 1264 333 1269 333 L 1274 333 1274 346 L 1274 359 1279 359 L 1284 359 1284 346 L 1284 333 1289 333 L 1294 333 1294 329 L 1294 325 1279 325 L 1264 325 1264 329 M 1301 341.971 L 1301 359 1314.560 359 L 1328.121 359 1327.810 355.250 L 1327.500 351.500 1319.250 351.210 C 1311.232 350.927, 1311 350.850, 1311 348.460 C 1311 346.066, 1311.201 346, 1318.481 346 C 1325.625 346, 1325.990 345.887, 1326.589 343.502 C 1327.785 338.738, 1326.704 338, 1318.531 338 C 1311.198 338, 1311 337.935, 1311 335.540 C 1311 333.150, 1311.232 333.073, 1319.250 332.790 L 1327.500 332.500 1327.500 329 L 1327.500 325.500 1314.250 325.221 L 1301 324.942 1301 341.971 M 1336 342 L 1336 359 1349 359 L 1362 359 1362 355 L 1362 351 1354 351 L 1346 351 1346 338 L 1346 325 1341 325 L 1336 325 1336 342 M 1368.463 326.237 C 1368.178 326.978, 1368.070 334.540, 1368.223 343.042 L 1368.500 358.500 1381.750 358.779 L 1395 359.058 1395 355.029 L 1395 351 1387.030 351 L 1379.060 351 1378.780 338.250 L 1378.500 325.500 1373.740 325.195 C 1370.445 324.984, 1368.820 325.304, 1368.463 326.237 M 1410.211 326.250 C 1409.136 327.548, 1398 356.636, 1398 358.144 C 1398 358.615, 1400.015 359, 1402.477 359 C 1406.149 359, 1407.248 358.550, 1408.592 356.500 C 1410.026 354.311, 1410.949 354, 1416 354 C 1421.051 354, 1421.974 354.311, 1423.408 356.500 C 1424.752 358.550, 1425.851 359, 1429.523 359 C 1431.985 359, 1434 358.615, 1434 358.144 C 1434 356.636, 1422.864 327.548, 1421.789 326.250 C 1421.221 325.563, 1418.615 325, 1416 325 C 1413.385 325, 1410.779 325.563, 1410.211 326.250 M 569 334 C 567.459 335.541, 567 337.333, 567 341.809 C 567 348.619, 568.533 351.250, 572.500 351.250 C 576.467 351.250, 578 348.619, 578 341.809 C 578 335.772, 575.885 332, 572.500 332 C 571.675 332, 570.100 332.900, 569 334 M 961.809 333.047 C 959.524 334.380, 958.441 342.192, 959.877 346.984 C 961.144 351.213, 963.545 352.407, 967.166 350.609 C 969.226 349.585, 969.535 348.631, 969.801 342.475 C 970.067 336.331, 969.846 335.294, 967.941 333.751 C 965.498 331.773, 964.241 331.629, 961.809 333.047 M 1201 335 C 1201 337.727, 1201.300 338, 1204.300 338 C 1208.457 338, 1210.269 336.371, 1208.918 333.847 C 1208.249 332.597, 1206.810 332, 1204.465 332 C 1201.282 332, 1201 332.244, 1201 335 M 1240.223 333.557 C 1238.295 334.907, 1238 336.019, 1238 341.934 C 1238 346.208, 1238.467 349.116, 1239.250 349.722 C 1241.853 351.737, 1243.965 351.849, 1246.139 350.089 C 1248.073 348.523, 1248.367 347.355, 1248.312 341.466 C 1248.261 336.089, 1247.865 334.375, 1246.433 333.327 C 1244.087 331.612, 1242.938 331.655, 1240.223 333.557 M 818 336.560 C 818 340.047, 818.076 340.114, 821.649 339.810 C 828.690 339.211, 829.039 333, 822.031 333 C 818.078 333, 818 333.069, 818 336.560 M 854 336 C 854 339.046, 854.094 339.108, 858.250 338.807 C 862.035 338.534, 862.500 338.226, 862.500 336 C 862.500 333.774, 862.035 333.466, 858.250 333.193 C 854.094 332.892, 854 332.954, 854 336 M 999 336 C 999 338.823, 999.231 339, 1002.917 339 C 1006.933 339, 1008.039 337.907, 1007.221 334.750 C 1006.886 333.462, 1005.742 333, 1002.883 333 C 999.235 333, 999 333.182, 999 336 M 532.764 340.500 L 531.096 345 534.615 345 C 537.806 345, 538.069 344.790, 537.434 342.750 C 536.269 339.010, 535.068 336, 534.740 336 C 534.570 336, 533.681 338.025, 532.764 340.500 M 701.253 338 C 698.561 344.827, 698.589 345, 702.382 345 L 705.898 345 704.579 341.750 C 703.853 339.962, 703.030 337.825, 702.749 337 C 702.377 335.906, 701.972 336.177, 701.253 338 M 775.455 338.455 C 772.384 341.526, 772.342 344.033, 775.314 346.826 C 778.218 349.554, 781.971 349.607, 784.811 346.961 C 787.775 344.200, 787.595 340.614, 784.365 338.073 C 780.905 335.351, 778.453 335.456, 775.455 338.455 M 1158.174 338.314 C 1155.607 341.047, 1155.413 343.716, 1157.557 346.777 C 1159.835 350.030, 1165.213 349.816, 1167.927 346.365 C 1170.613 342.951, 1170.540 341.449, 1167.545 338.455 C 1164.465 335.374, 1160.986 335.322, 1158.174 338.314 M 1083.098 340.149 C 1081.527 344.656, 1081.662 345, 1085 345 C 1086.650 345, 1088 344.617, 1088 344.149 C 1088 342.332, 1085.762 337, 1085 337 C 1084.558 337, 1083.702 338.417, 1083.098 340.149 M 1414.098 340.149 C 1412.527 344.656, 1412.662 345, 1416 345 C 1417.650 345, 1419 344.617, 1419 344.149 C 1419 342.332, 1416.762 337, 1416 337 C 1415.558 337, 1414.702 338.417, 1414.098 340.149 M 1201 348.500 C 1201 351.700, 1201.250 352, 1203.918 352 C 1208.314 352, 1210 351.029, 1210 348.500 C 1210 345.971, 1208.314 345, 1203.918 345 C 1201.250 345, 1201 345.300, 1201 348.500" stroke="none" fill="#fffcfc" fill-rule="evenodd"/><path d="" stroke="none" fill="#fcfcfc" fill-rule="evenodd"/></svg>